<?xml version="1.0" encoding="iso-8859-1"?>
<!-- Uploaded to: SVG Repo, www.svgrepo.com, Generator: SVG Repo Mixer Tools -->
<svg height="800px" width="800px" version="1.1" id="Layer_1" xmlns="http://www.w3.org/2000/svg" xmlns:xlink="http://www.w3.org/1999/xlink" 
	 viewBox="0 0 512 512" xml:space="preserve">
<g>
	<polygon style="fill:#E0E2E3;" points="61.793,97.103 0,97.103 0,414.897 512,414.897 512,97.103 141.241,97.103 	"/>
	<polygon style="fill:#546A79;" points="0,414.897 512,414.897 512,203.034 0,203.034 	"/>
	<path style="fill:#38454F;" d="M361.931,308.966c0,58.5-47.431,105.931-105.931,105.931s-105.931-47.431-105.931-105.931
		S197.5,203.034,256,203.034S361.931,250.465,361.931,308.966"/>
	<path style="fill:#E0E2E3;" d="M256,379.586c-38.938,0-70.621-31.682-70.621-70.621s31.682-70.621,70.621-70.621
		s70.621,31.682,70.621,70.621S294.938,379.586,256,379.586"/>
	<g>
		<polygon style="fill:#38454F;" points="35.31,317.793 114.759,317.793 114.759,282.483 35.31,282.483 		"/>
		<polygon style="fill:#38454F;" points="397.241,317.793 476.69,317.793 476.69,282.483 397.241,282.483 		"/>
	</g>
	<g>
		<polygon style="fill:#ECBA16;" points="397.241,185.379 414.897,185.379 414.897,167.724 397.241,167.724 		"/>
		<polygon style="fill:#ECBA16;" points="423.724,185.379 441.379,185.379 441.379,167.724 423.724,167.724 		"/>
		<polygon style="fill:#ECBA16;" points="450.207,185.379 467.862,185.379 467.862,167.724 450.207,167.724 		"/>
		<polygon style="fill:#ECBA16;" points="476.69,185.379 494.345,185.379 494.345,167.724 476.69,167.724 		"/>
		<polygon style="fill:#ECBA16;" points="370.759,185.379 388.414,185.379 388.414,167.724 370.759,167.724 		"/>
		<polygon style="fill:#ECBA16;" points="397.241,158.897 414.897,158.897 414.897,141.241 397.241,141.241 		"/>
		<polygon style="fill:#ECBA16;" points="423.724,158.897 441.379,158.897 441.379,141.241 423.724,141.241 		"/>
		<polygon style="fill:#ECBA16;" points="450.207,158.897 467.862,158.897 467.862,141.241 450.207,141.241 		"/>
		<polygon style="fill:#ECBA16;" points="476.69,158.897 494.345,158.897 494.345,141.241 476.69,141.241 		"/>
		<polygon style="fill:#ECBA16;" points="370.759,158.897 388.414,158.897 388.414,141.241 370.759,141.241 		"/>
		<polygon style="fill:#ECBA16;" points="397.241,132.414 414.897,132.414 414.897,114.759 397.241,114.759 		"/>
		<polygon style="fill:#ECBA16;" points="423.724,132.414 441.379,132.414 441.379,114.759 423.724,114.759 		"/>
		<polygon style="fill:#ECBA16;" points="450.207,132.414 467.862,132.414 467.862,114.759 450.207,114.759 		"/>
		<polygon style="fill:#ECBA16;" points="476.69,132.414 494.345,132.414 494.345,114.759 476.69,114.759 		"/>
		<polygon style="fill:#ECBA16;" points="370.759,132.414 388.414,132.414 388.414,114.759 370.759,114.759 		"/>
	</g>
	<g>
		<path style="fill:#7383BF;" d="M264.828,353.103c-2.26,0-4.52-0.865-6.241-2.586c-3.452-3.452-3.452-9.031,0-12.482l26.483-26.483
			c3.452-3.452,9.031-3.452,12.482,0c3.452,3.452,3.452,9.031,0,12.482l-26.483,26.483
			C269.347,352.238,267.087,353.103,264.828,353.103"/>
		<path style="fill:#7383BF;" d="M229.517,344.276c-2.26,0-4.52-0.865-6.241-2.586c-3.452-3.452-3.452-9.031,0-12.482l52.966-52.966
			c3.452-3.452,9.031-3.452,12.482,0c3.452,3.452,3.452,9.031,0,12.482l-52.966,52.966
			C234.037,343.411,231.777,344.276,229.517,344.276"/>
	</g>
	<polygon style="fill:#E0E2E3;" points="423.724,317.793 441.379,317.793 441.379,282.483 423.724,282.483 	"/>
	<polygon style="fill:#38454F;" points="26.483,176.552 79.448,176.552 79.448,123.586 26.483,123.586 	"/>
	<path style="fill:#7383BF;" d="M247.172,282.483c0,4.873-3.955,8.828-8.828,8.828c-4.873,0-8.828-3.955-8.828-8.828
		s3.955-8.828,8.828-8.828C243.218,273.655,247.172,277.61,247.172,282.483"/>
</g>
</svg>